# xmcd
#
# Track frame offsets: 
#        150
#        20260
#        31839
#        44761
#        63920
#        79242
#        100227
#        120081
#        135547
#        150222
#        162628
#        176558
#        196802
#        209855
#        230365
#        249723
#        263239
#        281195
#
# Disc length: 4004 seconds
#
# Revision: 1
# Processed by: cddbd v1.5.2PL0 Copyright (c) Steve Scherf et al.
# Submitted via: ExactAudioCopy v1.0b1
#
DISCID=f80fa212
DTITLE=Михаил Круг - Аллея шансона
DYEAR=2011
DGENRE=Chanson
TTITLE0=Владимирский централ
TTITLE1=Здравствуйте
TTITLE2=Пусти меня, мама
TTITLE3=Мадам
TTITLE4=Добрая, глупая, давняя
TTITLE5=Тишина (Версия 2009)
TTITLE6=Светочка
TTITLE7=Я прошел сибирь
TTITLE8=Ништяк, браток
TTITLE9=Все сбудется
TTITLE10=Электричка
TTITLE11=Искры в камине
TTITLE12=Жиган-лимон
TTITLE13=Это было вчера (Версия 2009)
TTITLE14=Девочка-пай
TTITLE15=Водочку пьем
TTITLE16=Катя (Версия 2009)
TTITLE17=Письмо маме
EXTD=
EXTT0=
EXTT1=
EXTT2=
EXTT3=
EXTT4=
EXTT5=
EXTT6=
EXTT7=
EXTT8=
EXTT9=
EXTT10=
EXTT11=
EXTT12=
EXTT13=
EXTT14=
EXTT15=
EXTT16=
EXTT17=
PLAYORDER=
